<?xml version="1.0" encoding="utf-8"?>
<!-- Generator: Adobe Illustrator 24.3.0, SVG Export Plug-In . SVG Version: 6.00 Build 0)  -->
<svg version="1.1" id="Layer_1" xmlns="http://www.w3.org/2000/svg" xmlns:xlink="http://www.w3.org/1999/xlink" x="0px" y="0px"
	 viewBox="0 0 400 75" style="enable-background:new 0 0 400 75;" xml:space="preserve">
<style type="text/css">
	.st0{fill:#4A8B2C;}
</style>
<g>
	<path class="st0" d="M390.8,11.1c0.7,0,1.5,0,1.5-0.9c0-0.8-0.6-0.9-1.2-0.9H390v1.8H390.8z M390,14.1h-0.7V8.7h2.1
		c1.2,0,1.7,0.5,1.7,1.5c0,0.9-0.6,1.4-1.2,1.5l1.5,2.4h-0.8l-1.5-2.4h-1V14.1z M394.7,11.4c0-2.2-1.6-3.9-3.8-3.9
		c-2.2,0-3.8,1.7-3.8,3.9c0,2.2,1.6,3.9,3.8,3.9C393.1,15.3,394.7,13.6,394.7,11.4 M395.4,11.4c0,2.5-2,4.5-4.5,4.5
		c-2.5,0-4.5-2-4.5-4.5c0-2.5,2-4.5,4.5-4.5C393.4,6.9,395.4,8.9,395.4,11.4"/>
	<polygon class="st0" points="259.3,8.5 201,8.5 201,15.8 226.6,15.8 226.6,65.3 233.8,65.3 233.8,15.8 259.3,15.8 	"/>
	<polygon class="st0" points="69,8.5 60.7,8.5 35.6,57.3 10.6,8.5 2.4,8.5 31.6,65.4 35.6,65.4 39.8,65.4 	"/>
	<polygon class="st0" points="398.4,65.4 369.2,8.4 361.1,8.5 331.9,65.4 340,65.4 365.2,16.5 390.2,65.4 	"/>
	<polygon class="st0" points="130.8,15.8 130.8,8.5 85.6,8.5 78.4,8.5 78.4,65.3 78.4,65.4 130.8,65.4 130.8,58.1 85.6,58.1
		85.6,40.5 129.1,40.5 129.1,33.3 85.6,33.3 85.6,15.8 	"/>
	<path class="st0" d="M170,67.5c9.3,0,17.6-3.6,23.6-9.5c0.2-0.2,0.4-0.4,0.6-0.5l-5.7-4.9c-4.7,4.3-11.2,7-18.5,7
		c-14.1,0-25.5-10.2-25.5-22.7c0-12.5,11.4-22.7,25.5-22.7c7.2,0,13.7,2.7,18.4,7l5.7-4.9c-6-6.1-14.5-10-24.1-10
		c-18,0-32.6,13.7-32.6,30.6C137.3,53.8,151.9,67.5,170,67.5"/>
	<path class="st0" d="M276.1,15.8h34.6c4.8,0,8.7,3.9,8.7,8.7c0,4.6-3.7,8.5-8.2,8.8h-35.1V15.8z M326.7,24.5
		c0-8.9-7.2-15.9-16-15.9h-41.9v24.7v7.3v24.7h7.3V40.5h29.7l12.8,24.8h8.2l-13-25.1C321.1,38.8,326.7,32.3,326.7,24.5"/>
</g>
</svg>
